<svg width="136" height="28" viewBox="0 0 136 28" fill="none" xmlns="http://www.w3.org/2000/svg">
<path fill-rule="evenodd" clip-rule="evenodd" d="M125.617 0.063724C125.81 0.00838396 126.012 -0.0111577 126.212 0.0060619C126.212 0.829433 126.213 1.65287 126.213 2.47633C126.215 4.69811 126.217 6.9201 126.206 9.14163C126.58 8.55664 127.09 8.07112 127.693 7.72676C128.57 7.22991 129.579 7.0162 130.582 7.11485C131.377 7.14656 132.131 7.47303 132.697 8.03056C133.096 8.43135 133.382 8.92955 133.528 9.47555C133.695 10.0713 133.782 10.6866 133.787 11.3052V25.5254C133.94 25.5279 134.095 25.5259 134.25 25.524C134.53 25.5205 134.811 25.517 135.09 25.5392C135.087 26.0774 135.087 26.6158 135.09 27.1546C134.734 27.1774 134.377 27.1738 134.02 27.1702H134.02H134.02H134.02H134.02H134.02H134.02H134.019C133.811 27.1681 133.603 27.166 133.396 27.1692H128.152C128.088 27.1692 128.029 27.1615 127.968 27.1536L127.949 27.1511V25.54C128.165 25.5145 128.381 25.518 128.599 25.5215C128.74 25.5237 128.882 25.526 129.024 25.5202V11.7295C129.033 11.3783 128.978 11.0283 128.861 10.6968C128.809 10.5698 128.725 10.458 128.618 10.3715C128.511 10.2851 128.384 10.2268 128.249 10.2019C128.032 10.1563 127.807 10.1638 127.594 10.2237C127.38 10.2837 127.184 10.3943 127.023 10.5462C126.79 10.7858 126.623 11.0826 126.541 11.4068C126.368 12.084 126.296 12.7828 126.327 13.4809V25.5297C126.402 25.5297 126.477 25.5295 126.552 25.5292H126.552C126.792 25.5284 127.033 25.5277 127.273 25.5349C127.279 26.0805 127.279 26.6256 127.273 27.1701C126.055 27.1758 124.837 27.1739 123.619 27.172C123.01 27.171 122.402 27.1701 121.793 27.1701C121.657 27.1669 121.521 27.1688 121.385 27.1708C121.15 27.1741 120.915 27.1775 120.682 27.1546V25.54C120.882 25.5182 121.084 25.5209 121.286 25.5237C121.402 25.5253 121.519 25.5268 121.636 25.5237V2.248H120.265C120.254 1.72302 120.257 1.19803 120.265 0.672188C121.302 0.543865 122.342 0.431016 123.381 0.318166C124.126 0.237261 124.871 0.156356 125.615 0.0697484L125.617 0.063724ZM108.432 0.170775C108.831 0.140343 109.227 0.0863157 109.619 0.00897684C109.743 -0.000133035 109.868 0.00303797 109.992 0.0184437V25.5249C110.187 25.528 110.382 25.5268 110.577 25.5256H110.577C110.867 25.5238 111.157 25.522 111.447 25.5343C111.443 26.0771 111.443 26.6199 111.447 27.1627C109.591 27.1769 107.734 27.1735 105.877 27.1702H105.877H105.877H105.876H105.876H105.876H105.876H105.875H105.875H105.875C105.368 27.1693 104.862 27.1684 104.356 27.1678C104.348 26.6216 104.348 26.0751 104.356 25.5283C104.529 25.5245 104.704 25.5249 104.878 25.5253C105.02 25.5256 105.161 25.5259 105.302 25.524V2.25005H103.839C103.816 1.92461 103.819 1.59803 103.823 1.27106C103.825 1.10518 103.826 0.939197 103.825 0.773215C103.809 0.644612 103.935 0.638667 104.039 0.633734C104.067 0.632428 104.093 0.631192 104.115 0.627769C104.688 0.567727 105.261 0.506181 105.835 0.444602L105.835 0.444563C106.7 0.35169 107.566 0.258743 108.432 0.170775ZM48.9737 0.248335C48.1967 0.247211 47.4197 0.246087 46.6426 0.253955L46.6435 0.256537C46.6306 1.67571 46.628 3.09661 46.6435 4.51579H47.8208C47.8259 4.9709 47.8239 5.42616 47.8219 5.88138C47.8188 6.57709 47.8157 7.27274 47.838 7.96777H49.3398C49.4214 7.70379 49.4865 7.43446 49.5518 7.16479C49.5912 7.00189 49.6306 6.83887 49.6738 6.67682C50.014 5.30842 50.3562 3.94003 50.7005 2.57163C50.7358 2.324 50.7462 2.07345 50.7315 1.82374C50.7296 1.6325 50.7309 1.44138 50.7322 1.25029V1.25025V1.25021V1.25017V1.25014V1.2501V1.25006V1.25002V1.24998C50.7345 0.915732 50.7368 0.581575 50.722 0.24707C50.1392 0.250021 49.5565 0.249178 48.9737 0.248335ZM0.926462 0.299805C1.72226 0.299805 2.51815 0.30057 3.31404 0.301335C4.90581 0.302865 6.49759 0.304395 8.08861 0.299805C8.11271 0.363491 8.13422 0.428038 8.15315 0.493446C8.67231 2.59763 9.18739 4.7029 9.70247 6.80821L9.70249 6.80829C10.3939 9.63441 11.0854 12.4606 11.7867 15.2842C12.3511 12.8559 12.9061 10.4255 13.4611 7.9954L13.4611 7.9952L13.4612 7.995L13.4612 7.9948L13.4612 7.9946L13.4613 7.9944L13.4613 7.9942L13.4614 7.994C14.0471 5.42925 14.6327 2.86477 15.2292 0.303247H22.233C22.2502 0.658208 22.2476 1.01355 22.2449 1.36928V1.36933V1.36938V1.36943V1.36949V1.36954V1.36959V1.36974C22.2435 1.54774 22.2422 1.72583 22.2434 1.90402H20.98C20.9834 9.77876 20.9834 17.6532 20.98 25.5274C21.1436 25.5294 21.3074 25.5287 21.4712 25.528C21.7285 25.5268 21.9858 25.5257 22.2425 25.5351V27.1703C21.3018 27.1809 20.3608 27.1791 19.4197 27.1774H19.4197H19.4196H19.4196H19.4195H19.4195H19.4194H19.4194C18.7471 27.1761 18.0747 27.1749 17.4023 27.1781C16.9882 27.1754 16.5743 27.1768 16.1604 27.1781H16.16C15.5057 27.1802 14.8518 27.1823 14.1982 27.1686C14.2038 26.9198 14.2023 26.6711 14.2009 26.4224V26.4223V26.4223V26.4222V26.4222V26.4221V26.4221V26.422V26.422C14.1992 26.134 14.1976 25.846 14.2068 25.5584L14.2275 25.5377C14.5367 25.5292 14.8465 25.5306 15.1562 25.5321H15.1564H15.1564H15.1565H15.1565H15.1566H15.1566H15.1566H15.1567C15.3752 25.5331 15.5937 25.5342 15.8119 25.5317V9.56791C15.8207 9.40171 15.8126 9.23504 15.7878 9.07047C14.3918 15.0966 12.987 21.1236 11.5733 27.1514C11.4879 27.1651 11.4016 27.1722 11.3151 27.1729C10.8061 27.1695 10.2974 27.1706 9.78866 27.1718H9.78856H9.78847H9.78837H9.78828H9.78818H9.78809H9.78736C9.53271 27.1723 9.27803 27.1729 9.02325 27.1729L4.72011 9.09973V25.5308C4.92461 25.5333 5.12922 25.5312 5.33378 25.529H5.33397H5.33416H5.33436H5.33455H5.33474H5.33493H5.33512C5.70605 25.5252 6.07683 25.5213 6.44653 25.5446V27.1583C6.26632 27.1804 6.08504 27.1777 5.90406 27.1749H5.90396H5.90386H5.90376H5.90366H5.90356H5.90346H5.90336C5.80282 27.1734 5.70237 27.1719 5.60225 27.1746C5.01981 27.173 4.43736 27.1741 3.85496 27.1751H3.85491H3.85486H3.85481H3.85475H3.8547H3.85465H3.8546C2.8752 27.1768 1.89593 27.1785 0.916995 27.1678V25.5326C1.25731 25.5219 1.59845 25.5239 1.93956 25.5259C2.0936 25.5268 2.24763 25.5277 2.40158 25.5274V1.89885C2.07167 1.90229 1.74176 1.90115 1.41186 1.9C1.2469 1.89943 1.08195 1.89885 0.916995 1.89885C0.918159 1.71913 0.916964 1.53931 0.915768 1.35936C0.913424 1.00677 0.911077 0.653663 0.926462 0.299805ZM60.8365 0.304769C60.5824 0.301365 60.3282 0.297962 60.0759 0.317646H60.0733C60.0502 0.628385 60.0537 0.941262 60.0572 1.25446C60.0596 1.46693 60.062 1.67954 60.0561 1.89173C60.3108 1.90734 60.5663 1.90532 60.8218 1.9033C61.0453 1.90153 61.2687 1.89977 61.4916 1.90981C61.4951 9.78169 61.4936 17.6493 61.4873 25.5125C61.3053 25.5178 61.1227 25.5151 60.9402 25.5125C60.6446 25.5082 60.3489 25.5039 60.0552 25.5332C60.0581 25.8892 60.0571 26.2452 60.0562 26.6016V26.602V26.6024V26.6028V26.6032V26.6036V26.6039C60.0557 26.7828 60.0552 26.9617 60.0552 27.1408C60.2638 27.1675 60.4745 27.1636 60.6851 27.1597H60.6851H60.6851H60.6852H60.6852H60.6852C60.8082 27.1574 60.9311 27.1551 61.0536 27.1589C61.8683 27.1589 62.683 27.1599 63.4977 27.1608C65.1272 27.1627 66.7567 27.1647 68.3861 27.1589C68.393 26.615 68.393 26.0699 68.3861 25.5237C67.9543 25.5173 67.5219 25.5181 67.0895 25.5189C66.9454 25.5192 66.8012 25.5194 66.6571 25.5194V14.827H71.8596V25.5194C71.6215 25.5216 71.3832 25.521 71.1449 25.5204H71.1445C70.8266 25.5195 70.5089 25.5187 70.1917 25.5246C70.1857 26.0685 70.1865 26.6141 70.1917 27.1598C72.9274 27.1655 75.6627 27.1655 78.3978 27.1598C78.4052 26.6159 78.4052 26.0708 78.3978 25.5246C78.0577 25.5181 77.7185 25.5189 77.3789 25.5197C77.2656 25.52 77.1523 25.5203 77.0389 25.5203C77.0446 17.6473 77.0446 9.77423 77.0389 1.9012C77.3406 1.89719 77.6419 1.89852 77.9436 1.89986C78.0946 1.90053 78.2456 1.9012 78.3969 1.9012C78.3981 1.79363 78.3999 1.68592 78.4017 1.57813L78.4018 1.57744C78.4089 1.15079 78.4161 0.722952 78.3866 0.297852C75.6613 0.303015 72.936 0.303015 70.2106 0.297852C70.1798 0.721874 70.1871 1.14917 70.1945 1.57496C70.1963 1.68412 70.1982 1.79318 70.1994 1.90206H71.8622V12.9517H66.6554C66.6574 11.4784 66.6579 10.005 66.6583 8.53173V8.53166V8.5316V8.53154V8.53148V8.53141V8.53135C66.6589 6.32115 66.6595 4.11114 66.6657 1.90206C66.9519 1.90421 67.2385 1.90421 67.5254 1.90421C67.8123 1.90421 68.0995 1.90421 68.387 1.90637C68.3876 1.77212 68.3897 1.63755 68.3918 1.50283V1.50218V1.50153V1.50087V1.50022V1.49956V1.49891V1.49881V1.49872V1.49862V1.49852V1.49843V1.49833C68.398 1.09992 68.4042 0.700225 68.3741 0.303876H61.3737C61.195 0.309571 61.0158 0.30717 60.8365 0.304769ZM112.512 7.68485L112.513 7.68317L112.517 7.68313L112.512 7.68485ZM113.746 5.09286L113.746 5.09209C114.249 4.02985 114.752 2.96729 115.266 1.90918C115.684 1.91205 116.103 1.91109 116.522 1.91014C116.731 1.90966 116.941 1.90918 117.151 1.90918C117.153 2.68351 117.153 3.45784 117.152 4.23218V4.23772C117.151 5.30931 117.15 6.3809 117.158 7.45248C118.222 7.44732 119.287 7.44732 120.351 7.45248C120.368 8.07988 120.36 8.709 120.351 9.33726C119.72 9.34372 119.089 9.34272 118.457 9.34171C117.996 9.34098 117.535 9.34024 117.073 9.34242V23.696C117.057 24.0862 117.121 24.4756 117.262 24.8398C117.368 24.9808 117.526 25.0747 117.701 25.1012C117.875 25.1277 118.054 25.0849 118.197 24.9818C118.434 24.655 118.547 24.2556 118.518 23.8535C118.533 23.2494 118.53 22.6451 118.528 22.0408C118.526 21.5086 118.525 20.9765 118.534 20.4445C118.769 20.4479 119.005 20.4463 119.241 20.4447C119.613 20.4422 119.985 20.4397 120.357 20.4566V23.6409C120.374 24.5692 120.099 25.4793 119.57 26.2426C119.272 26.6233 118.889 26.9289 118.451 27.135C118.03 27.321 117.587 27.452 117.132 27.5249C116.891 27.5315 116.65 27.5303 116.409 27.5291H116.409H116.409C116.242 27.5283 116.075 27.5275 115.909 27.5292C115.675 27.5177 115.443 27.4863 115.214 27.4354C114.419 27.3692 113.679 26.9994 113.149 26.4027C112.67 25.6976 112.405 24.8697 112.384 24.0179C112.33 23.4949 112.332 22.9698 112.335 22.445C112.335 22.298 112.336 22.1509 112.336 22.004V9.28132C112.144 9.27646 111.953 9.2786 111.762 9.28074C111.48 9.2839 111.197 9.28707 110.913 9.26755C110.885 8.96798 110.889 8.66261 110.894 8.35666C110.897 8.13524 110.9 7.91352 110.891 7.69346C111.246 7.67657 111.6 7.6792 111.954 7.68183C112.14 7.68322 112.326 7.6846 112.513 7.68317C112.927 6.82229 113.336 5.95866 113.745 5.09481L113.745 5.09445L113.745 5.094L113.746 5.09347L113.746 5.09286ZM85.4597 7.06505C84.3765 6.93497 83.2789 7.12652 82.3038 7.61585L82.2995 7.61757C81.3482 8.12584 80.5469 8.87486 79.9758 9.78979C79.4974 10.5239 79.118 11.3179 78.8475 12.1514C78.1367 14.5203 77.8912 17.0044 78.1246 19.4667C78.2107 20.6733 78.4525 21.8636 78.844 23.0082C79.1507 23.915 79.6209 24.758 80.2314 25.4954C80.8616 26.2469 81.6776 26.8205 82.5981 27.159C83.1332 27.3376 83.6838 27.4658 84.2428 27.542C84.4442 27.5402 84.6459 27.5408 84.8475 27.5414C85.1248 27.5423 85.4021 27.5431 85.6791 27.5377C85.8398 27.4909 86.0043 27.4644 86.1689 27.4379C86.3316 27.4117 86.4943 27.3855 86.6534 27.3397C87.304 27.1874 87.9092 26.883 88.4194 26.4516C89.0913 25.8496 89.5749 25.0663 89.8119 24.1958C90.1296 22.9753 90.2605 21.7136 90.2 20.4538H88.249C88.3162 21.5303 88.1998 22.6103 87.9047 23.6476C87.7511 24.163 87.4176 24.6061 86.9649 24.8964C86.4727 25.1539 85.9071 25.2347 85.3624 25.1253C85.1261 25.0934 84.8989 25.0131 84.695 24.8895C84.4911 24.7658 84.3149 24.6015 84.1774 24.4067C83.9115 24.0146 83.7199 23.577 83.6119 23.1158C83.4742 22.5587 83.3776 21.9924 83.3227 21.4212C83.1973 20.0453 83.1433 18.6639 83.1609 17.2824C84.217 17.2802 85.2731 17.2807 86.3293 17.2812C87.696 17.2819 89.0627 17.2826 90.4298 17.2773C90.4465 16.1341 90.4008 14.991 90.293 13.8528C90.197 12.6945 89.9641 11.5517 89.5993 10.4482C89.2889 9.46974 88.7007 8.60263 87.9064 7.95235C87.1926 7.42847 86.3434 7.1205 85.4597 7.06505ZM83.426 11.2623C83.4781 10.6847 83.6464 10.1235 83.9209 9.61251H83.9226C84.0659 9.42808 84.2681 9.2983 84.4955 9.24475C84.7228 9.1912 84.9617 9.21711 85.1722 9.31817C85.342 9.46067 85.4819 9.63544 85.5837 9.83236C85.6855 10.0293 85.7472 10.2444 85.7652 10.4654C85.9584 11.7427 86.0465 13.0336 86.0286 14.3253C86.0505 14.5872 86.048 14.8498 86.0456 15.1125C86.0444 15.2417 86.0432 15.3709 86.0449 15.5001H83.1678C83.1759 14.0838 83.2621 12.6691 83.426 11.2623ZM25.6239 7.87621C26.5167 7.30267 27.5615 7.01118 28.6223 7.03968C29.7703 6.996 30.8973 7.35661 31.8066 8.05867C32.0003 8.2394 32.1879 8.42702 32.3678 8.62238C32.9452 9.36958 33.3598 10.2295 33.5847 11.1466C33.9909 12.8286 34.1977 14.5525 34.2009 16.2828C34.2148 16.6164 34.2108 16.9506 34.1889 17.2837C33.3847 17.2837 32.5806 17.2827 31.7764 17.2816L31.7722 17.2816H31.7721H31.772H31.7719C30.161 17.2795 28.5502 17.2774 26.9398 17.2837C26.9423 17.5394 26.9428 17.7951 26.9434 18.0508V18.0516C26.9449 18.8391 26.9465 19.6269 27.0069 20.4121C27.0359 21.5496 27.2338 22.6764 27.5939 23.7557C27.6907 24.0612 27.8589 24.3392 28.0846 24.5667C28.3103 24.7942 28.587 24.9646 28.8917 25.0638C29.2061 25.1588 29.5365 25.1892 29.863 25.1529C30.1895 25.1167 30.5052 25.0146 30.7911 24.853C31.2071 24.5659 31.5154 24.1483 31.6672 23.6662C31.9662 22.6239 32.0846 21.5382 32.0175 20.456C32.6664 20.4388 33.3179 20.4362 33.966 20.456C34.0338 21.7621 33.8867 23.0704 33.5305 24.3288C33.2805 25.1778 32.7896 25.9359 32.1173 26.5114C31.423 27.0415 30.5968 27.3713 29.7282 27.465C29.3636 27.5382 28.9907 27.5616 28.6197 27.5347C28.301 27.5608 27.9801 27.5388 27.6679 27.4693C26.2076 27.2932 24.8722 26.5589 23.9414 25.4201C23.3085 24.6297 22.8282 23.7285 22.5248 22.7625C21.9917 20.955 21.7551 19.0731 21.8242 17.1899C21.8292 15.145 22.2205 13.1194 22.9775 11.2198C23.5124 9.86902 24.4331 8.70559 25.6248 7.87449L25.6239 7.87621ZM28.2256 9.25666C28.0907 9.28904 27.9648 9.35155 27.8575 9.43949C27.7502 9.52742 27.6642 9.63852 27.6059 9.76443C27.3985 10.2287 27.2641 10.7222 27.2074 11.2275C27.1005 12.0097 27.033 12.7967 27.0052 13.5856C26.9691 14.2251 26.9415 14.8662 26.9536 15.5083C27.4975 15.5033 28.0417 15.5041 28.5859 15.5048H28.5859H28.5859H28.5859C28.994 15.5053 29.4021 15.5058 29.81 15.504C29.8143 14.6003 29.81 13.6966 29.7627 12.7947C29.748 12.0326 29.6752 11.2728 29.5449 10.5218C29.4976 10.1434 29.3584 9.78235 29.1396 9.4701C29.0186 9.35835 28.8705 9.28031 28.71 9.24376C28.5494 9.20721 28.3821 9.21344 28.2247 9.26183L28.2256 9.25666ZM37.3412 7.37371C36.1932 7.5014 35.045 7.62912 33.8962 7.75117L33.8936 7.75633C33.8936 7.93844 33.8926 8.12054 33.8917 8.30267V8.30277C33.8898 8.6672 33.8879 9.03175 33.8936 9.39669C34.2282 9.40424 34.5628 9.40305 34.8971 9.40187H34.8972H34.8973C35.0203 9.40143 35.1434 9.40099 35.2663 9.40099V25.5274C35.0841 25.5314 34.9018 25.5294 34.7195 25.5275C34.4247 25.5243 34.13 25.5211 33.8359 25.5429V27.1583C34.2169 27.1807 34.5991 27.1774 34.9812 27.174H34.9813H34.9813C35.2164 27.1719 35.4516 27.1699 35.6863 27.1738H40.3595C40.5671 27.1828 40.7751 27.1765 40.9817 27.1549C40.9817 26.9765 40.9811 26.7981 40.9804 26.6196C40.979 26.2627 40.9777 25.9056 40.9817 25.5481C40.6639 25.5249 40.345 25.5177 40.0264 25.5266V13.3737C39.9823 12.6259 40.0816 11.8766 40.319 11.1661C40.3926 10.94 40.521 10.7356 40.6928 10.5712C40.8646 10.4067 41.0745 10.2874 41.3036 10.2238C41.4991 10.1597 41.7086 10.1518 41.9084 10.2009C42.1082 10.2501 42.2901 10.3543 42.4336 10.5017C42.6475 10.8741 42.746 11.3015 42.7168 11.7299C42.7133 16.3296 42.7133 20.9291 42.7168 25.5283C42.5982 25.5283 42.4797 25.5273 42.3612 25.5264C42.1244 25.5245 41.8879 25.5226 41.6522 25.5283C41.647 26.0722 41.6453 26.6187 41.6522 27.1635L42.7132 27.1658C44.6012 27.1701 46.49 27.1744 48.3745 27.1592C48.3702 26.6161 48.3685 26.0739 48.3745 25.5309C48.144 25.516 47.9138 25.5186 47.6835 25.5211L47.6831 25.5212C47.5946 25.5221 47.5061 25.5231 47.4175 25.5231V12.5733C47.4639 11.6616 47.4102 10.7476 47.2574 9.84766C47.1234 9.09881 46.7533 8.41246 46.2014 7.88887C45.8223 7.58371 45.3861 7.35714 44.9185 7.22238C44.4508 7.08761 43.961 7.04736 43.4776 7.10398C42.4291 7.15541 41.4299 7.5649 40.6469 8.2641C40.3711 8.50923 40.1236 8.78465 39.9094 9.08514C39.9033 8.79295 39.9046 8.50076 39.9059 8.20857V8.20811C39.9075 7.83605 39.9091 7.46399 39.8956 7.09193C39.0444 7.18427 38.1932 7.27895 37.3418 7.37365L37.3412 7.37371ZM51.1975 8.07861C52.5314 7.26458 54.1039 6.93228 55.653 7.13709C56.5707 7.2188 57.4712 7.43603 58.3253 7.7817C58.6107 7.88975 58.8846 8.02613 59.1429 8.18878C59.1388 9.51861 59.1402 10.8484 59.1415 12.1785V12.1787C59.1422 12.8439 59.1429 13.5091 59.1429 14.1744C58.6161 14.1942 58.0877 14.1934 57.5602 14.1744C57.5491 14.0193 57.5396 13.8639 57.5301 13.7084L57.5301 13.7083L57.5301 13.7082C57.5004 13.223 57.4707 12.7373 57.3932 12.257C57.3024 11.3586 57.0144 10.4914 56.5498 9.71725C56.3256 9.39013 56.0156 9.13108 55.6539 8.9685C55.3679 8.85021 55.0597 8.7954 54.7504 8.80789C54.4412 8.82037 54.1384 8.89983 53.8629 9.0408C53.6216 9.19909 53.4209 9.41186 53.2769 9.66196C53.133 9.91206 53.0498 10.1925 53.0341 10.4806C52.9488 11.1379 53.0521 11.8059 53.3319 12.4067C53.5745 12.9109 53.9054 13.3676 54.3087 13.7553C54.8078 14.272 55.3645 14.7247 55.9212 15.1774C56.4829 15.6341 57.0446 16.0909 57.5472 16.6135C58.3945 17.39 59.0378 18.363 59.4202 19.4468C59.8026 20.5306 59.9125 21.6918 59.7401 22.8281C59.6283 23.7694 59.2723 24.6651 58.7074 25.4263C58.2484 25.9954 57.681 26.4676 57.038 26.8156C56.3951 27.1635 55.6894 27.3802 54.9619 27.4531C54.7381 27.5159 54.5057 27.5432 54.2734 27.534C54.0662 27.5316 53.8589 27.5331 53.6517 27.5346H53.6515C53.4147 27.5364 53.1779 27.5381 52.9412 27.534C52.7172 27.4825 52.4899 27.4517 52.2625 27.4209C52.0452 27.3915 51.8277 27.3621 51.6132 27.3145C50.7337 27.1462 49.8819 26.8566 49.0821 26.4539V19.9888C49.4321 19.9725 49.7825 19.975 50.1327 19.9774H50.1328H50.1328C50.3183 19.9787 50.5036 19.98 50.6889 19.9785C50.6935 20.9069 50.7799 21.8331 50.9471 22.7463C51.0552 23.3917 51.2716 24.0141 51.5874 24.5872C51.8552 25.0758 52.2923 25.4497 52.8164 25.6389C53.3318 25.8031 53.8853 25.8046 54.4017 25.6432C54.6543 25.5554 54.8828 25.4096 55.0688 25.2173C55.2548 25.0251 55.393 24.7919 55.4723 24.5364C55.7238 23.7533 55.7007 22.9078 55.4069 22.1396C55.2153 21.6593 54.9425 21.2157 54.6005 20.828C53.9341 20.0977 53.215 19.4174 52.4489 18.7926C51.382 17.9468 50.4804 16.9113 49.7895 15.7382C49.2663 14.7489 49.0033 13.6427 49.0253 12.5238C49.0007 11.567 49.2186 10.6196 49.6587 9.76975C50.0191 9.08516 50.5474 8.50328 51.1941 8.07861H51.1975ZM98.3885 7.13691C97.1045 6.97702 95.8014 7.17446 94.6224 7.70751L94.6241 7.70493C93.807 8.08257 93.0939 8.65315 92.5463 9.36753C91.9986 10.0819 91.6328 10.9187 91.4802 11.8058C91.4038 12.4474 91.3776 13.094 91.4019 13.7397C91.4036 13.7552 91.4033 13.774 91.403 13.7938C91.402 13.8672 91.4008 13.954 91.4957 13.9385H94.0389C94.2322 13.9342 94.4261 13.9366 94.62 13.939C94.9309 13.9429 95.242 13.9468 95.551 13.923C95.5715 13.5198 95.5682 13.1147 95.5649 12.7095C95.5629 12.4521 95.5608 12.1946 95.5648 11.9375C95.5105 11.1764 95.5685 10.4114 95.7369 9.66716C95.777 9.51547 95.8525 9.37546 95.9573 9.25862C96.062 9.14178 96.1929 9.05144 96.3393 8.99501C96.688 8.88185 97.0663 8.90366 97.3996 9.05611C97.531 9.14322 97.6433 9.25598 97.73 9.3876C97.8167 9.51923 97.8758 9.66701 97.904 9.82207C98.0172 10.4682 98.0573 11.1249 98.0236 11.78V14.3696C96.5921 14.8202 95.2084 15.4106 93.8926 16.1322C92.9801 16.6357 92.2216 17.3776 91.698 18.2786C91.2288 19.2235 90.9738 20.2602 90.951 21.3149C90.8407 22.5806 90.9781 23.8557 91.3554 25.069C91.6294 25.9339 92.2187 26.6641 93.0061 27.1147C93.4176 27.3135 93.8551 27.4531 94.3057 27.5295C94.4238 27.534 94.5424 27.5319 94.6614 27.5299C94.772 27.5281 94.883 27.5262 94.9942 27.5295C95.3664 27.5253 95.7351 27.4562 96.0837 27.3255C97.0741 26.937 97.8906 26.2034 98.3825 25.26C98.3853 25.6805 98.3844 26.101 98.3834 26.5218C98.3829 26.7322 98.3825 26.9428 98.3825 27.1534C98.5925 27.1713 98.8035 27.1764 99.0142 27.1689H101.983C102.203 27.1653 102.423 27.1673 102.643 27.1692C103.005 27.1724 103.367 27.1757 103.729 27.1543V25.538C103.518 25.5176 103.307 25.52 103.095 25.5224C102.968 25.5238 102.841 25.5252 102.714 25.5217V12.1535C102.712 11.4331 102.611 10.7164 102.414 10.0235C102.195 9.24552 101.734 8.55736 101.099 8.05864C100.301 7.49958 99.3612 7.1798 98.3885 7.13691ZM95.5717 20.7348C95.5363 19.7107 95.7292 18.6915 96.1362 17.751L96.1319 17.7502C96.5968 17.0389 97.2491 16.4698 98.0167 16.1055V22.4277C98.0427 23.0311 97.9163 23.6313 97.6492 24.173C97.5094 24.3568 97.3184 24.4952 97.1002 24.5709C96.882 24.6465 96.6464 24.656 96.4228 24.5982C96.2114 24.5371 96.0317 24.3969 95.9211 24.2066C95.7614 23.9021 95.664 23.5689 95.6345 23.2264C95.5584 22.3982 95.5374 21.5658 95.5717 20.7348Z" fill="#121212"/>
</svg>
