<svg width="25" height="24" viewBox="0 0 25 24" fill="none" xmlns="http://www.w3.org/2000/svg">
<path d="M18.6231 18.7247C17.9244 17.7996 17.0204 17.0493 15.9823 16.5331C14.9442 16.0168 13.8005 15.7487 12.6411 15.7497C11.4818 15.7487 10.338 16.0168 9.29994 16.5331C8.26188 17.0493 7.35787 17.7996 6.65913 18.7247M18.6231 18.7247C19.9866 17.5119 20.9482 15.9133 21.3823 14.1408C21.8164 12.3683 21.7014 10.5058 21.0526 8.80018C20.4038 7.09457 19.2519 5.62648 17.7495 4.5906C16.2472 3.55472 14.4655 3 12.6406 3C10.8158 3 9.03406 3.55472 7.53173 4.5906C6.0294 5.62648 4.87746 7.09457 4.22866 8.80018C3.57987 10.5058 3.46488 12.3683 3.89895 14.1408C4.33301 15.9133 5.29563 17.5119 6.65913 18.7247M18.6231 18.7247C16.9771 20.1929 14.8468 21.0028 12.6411 20.9997C10.4352 21.0031 8.30536 20.1931 6.65913 18.7247M15.6411 9.74971C15.6411 10.5454 15.3251 11.3084 14.7624 11.871C14.1998 12.4336 13.4368 12.7497 12.6411 12.7497C11.8455 12.7497 11.0824 12.4336 10.5198 11.871C9.9572 11.3084 9.64113 10.5454 9.64113 9.74971C9.64113 8.95406 9.9572 8.19099 10.5198 7.62838C11.0824 7.06578 11.8455 6.74971 12.6411 6.74971C13.4368 6.74971 14.1998 7.06578 14.7624 7.62838C15.3251 8.19099 15.6411 8.95406 15.6411 9.74971Z" stroke="black" stroke-width="1.5" stroke-linecap="round" stroke-linejoin="round"/>
</svg>
