<svg width="176" height="57" viewBox="0 0 176 57" fill="none" xmlns="http://www.w3.org/2000/svg">
<path d="M149.663 45.0592V44.2253H145.51L145.383 45.0592H149.663Z" fill="#121212"/>
<path d="M130.134 47.3372V47.8503C130.134 49.0049 129.975 49.8067 129.563 49.8067C129.151 49.8067 129.119 49.486 129.056 48.0748L128.866 45.3488C128.612 41.6927 128.168 40.4098 125.505 39.9288C128.041 39.2553 129.626 37.3631 129.626 34.6691C129.626 31.9751 126.9 29.5056 124.3 29.5056H113.838V30.0508L114.409 30.1791C115.519 30.4357 115.55 31.013 115.55 33.5145V45.8619C115.55 48.6201 114.79 49.967 113.046 49.967C111.302 49.967 110.636 49.1973 110.636 46.1826V31.5261C110.636 30.6602 110.922 30.4036 111.588 30.2433L112.412 30.0508V29.5056H106.008V30.0508L106.674 30.2433C107.276 30.4357 107.498 30.6923 107.498 31.5582V45.9581C107.498 49.1973 109.368 51.0254 112.222 51.0254C115.075 51.0254 116.47 49.2294 116.47 45.894V32.4562C116.47 30.7885 116.819 30.1791 118.15 30.1791C119.482 30.1791 119.672 30.564 119.672 31.5582V48.7804C119.672 49.6463 119.386 49.967 118.784 50.1274L118.118 50.3198V50.865H124.3V50.3198L123.635 50.1595C123.032 49.9991 122.747 49.6784 122.747 48.7804V40.3457H124.174C125.061 40.3457 125.537 40.5702 125.569 42.4624L125.727 46.4392C125.854 49.9991 126.868 50.9933 128.58 50.9933C130.292 50.9933 130.799 49.7746 130.799 48.0748V47.3693H130.165L130.134 47.3372ZM123.73 39.576H122.715V30.2112H123.952C125.188 30.2112 126.298 31.013 126.298 35.0539C126.298 39.0949 125.442 39.576 123.73 39.576Z" fill="#121212"/>
<path d="M44.4718 47.3372V47.8504C44.4718 49.0049 44.3133 49.8067 43.9012 49.8067C43.489 49.8067 43.4573 49.486 43.3939 48.0749L43.2037 45.3488C42.9501 41.5965 42.4745 40.4098 39.8432 39.9288C42.3794 39.2553 43.9646 37.3631 43.9646 34.6691C43.9646 31.9751 41.2381 29.5056 38.6385 29.5056H32.7734V30.0508L33.4392 30.2433C34.0416 30.4357 34.3269 30.6923 34.3269 31.5582V48.7804C34.3269 49.6463 34.0416 49.9671 33.4392 50.1274L32.7734 50.3198V50.865H38.9555V50.3198L38.2897 50.1595C37.6874 49.9991 37.4021 49.6784 37.4021 48.7804V40.3457H38.5434C39.431 40.3457 39.9066 40.7305 39.9383 42.4624L40.0968 46.4392C40.2236 49.9991 41.2381 50.9933 42.9501 50.9933C44.662 50.9933 45.1693 49.7746 45.1693 48.0749V47.3693H44.5352L44.4718 47.3372ZM38.0678 39.576H37.3704V30.2112H38.2897C39.5262 30.2112 40.6358 31.013 40.6358 35.0539C40.6358 39.0949 39.7798 39.576 38.0678 39.576Z" fill="#121212"/>
<path d="M159.211 31.5266C159.211 30.6607 159.496 30.372 160.098 30.2438L160.923 30.0513V29.4741H154.55V30.0193L155.216 30.2117C155.818 30.4041 156.104 30.6607 156.104 31.5266V48.8771C156.104 49.711 155.755 50.192 154.804 50.192C153.853 50.192 153.536 49.8072 153.155 47.9791L149.224 29.4099H147.988L144.247 47.4019C143.803 49.4223 143.613 49.8713 142.788 50.1279L142.281 50.2883V50.8335H146.656V50.2883L146.022 50.16C145.103 49.9675 144.849 49.4865 145.325 47.1132L147.544 35.5997L149.953 47.7867C150.334 49.5506 150.302 49.9034 148.971 50.1279L148.336 50.2562V50.8014H164.568V43.7457H163.998C163.681 46.9849 163.047 50.0638 160.447 50.0638H159.211V31.4945V31.5266Z" fill="#121212"/>
<path d="M132.571 31.911V46.7279C132.571 48.9728 132.571 49.9991 131.461 50.1915L130.922 50.2878V50.833H135.424V50.2878C133.459 49.9991 133.459 49.3256 133.459 46.9203V32.841L132.729 32.1675L140.243 50.865H141.543V33.6428C141.543 31.1092 141.543 30.5319 142.779 30.2112L143.223 30.0829V29.5377H138.594V30.0829L139.102 30.2112C140.655 30.4998 140.655 31.1092 140.655 33.4504V44.2263L140.972 44.1301L135.266 29.5056H130.891V30.0508L131.334 30.1791C131.81 30.3395 132.095 30.8847 132.634 31.911" fill="#121212"/>
<path d="M99.9791 29.3123C96.143 29.3123 94.3359 34.2192 94.3359 40.1203C94.3359 46.0214 96.2064 50.9603 99.9791 50.9603C103.752 50.9603 105.654 46.0534 105.654 40.1203C105.654 34.1871 103.783 29.3123 99.9791 29.3123ZM99.9791 50.1906C98.3939 50.1906 97.6964 48.9078 97.6964 40.024C97.6964 31.1403 98.4573 30.1782 99.9791 30.1782C101.501 30.1782 102.293 31.429 102.293 39.9599C102.293 48.4908 101.564 50.1906 99.9791 50.1906Z" fill="#121212"/>
<path d="M92.5383 31.5259C92.5383 30.66 92.7602 30.3714 93.3625 30.211L94.0283 30.0186V29.4734H87.6877V30.0186L88.4486 30.211C89.0509 30.3714 89.3997 30.5959 89.3997 31.4939V46.407C89.3997 48.4916 89.2095 50.1593 87.6877 50.1593C86.166 50.1593 85.9758 49.3896 86.0075 48.8123C86.1026 47.8502 87.6877 47.9143 87.8145 46.3749C87.9096 45.2524 87.2122 44.8034 86.5464 44.7072C85.5953 44.5789 84.4223 45.3807 84.3906 47.0163C84.3906 49.101 85.7221 50.9932 88.0048 50.9932C90.2874 50.9932 92.5066 49.2613 92.5066 45.9259V31.558L92.5383 31.5259Z" fill="#121212"/>
<path d="M75.516 30.211H76.1817C78.0839 30.211 78.718 33.2899 78.9399 36.5291H79.5105V29.4734H68.3828V36.5291H68.9535C69.1754 33.2899 69.8094 30.211 71.7116 30.211H72.3774V48.7482C72.3774 49.6141 72.092 49.9348 71.4897 50.0952L70.6971 50.2876V50.8328H77.323V50.2876L76.3719 50.0631C75.8013 49.9027 75.4843 49.7103 75.4843 48.7482V30.211H75.516Z" fill="#121212"/>
<path d="M61.5041 40.1212H62.4552C63.8184 40.1853 64.2305 40.6985 64.5159 44.098H65.0865V35.4709H64.5159C64.1671 38.1648 63.8184 39.3194 62.4869 39.3515H61.5041V30.2433H63.6282C65.9742 30.2433 66.5131 33.2579 66.8302 36.5613H67.4008V29.5056H56.8438V30.0508L57.5095 30.2433C58.207 30.4357 58.3972 30.8526 58.3972 31.5902V48.7804C58.3972 49.6463 58.1119 49.967 57.5095 50.1274L56.8438 50.3198V50.865H67.7178V43.8094H67.1472C66.7668 47.0486 66.3863 50.1274 63.6282 50.1274H61.5041V40.1533V40.1212Z" fill="#121212"/>
<path d="M49.9539 40.1212H50.905C52.2682 40.1853 52.6804 40.6985 52.9657 44.098H53.5363V35.4709H52.9657C52.617 38.1648 52.2682 39.3194 50.9367 39.3515H49.9539V30.2433H52.078C54.424 30.2433 54.963 33.3221 55.28 36.5613H55.8507V29.5056H44.9766V30.0508L45.9593 30.2433C46.6568 30.4357 46.847 30.8526 46.847 31.5902V48.7804C46.847 49.6463 46.5617 49.967 45.9593 50.1274L45.2936 50.3198V50.865H56.1677V43.8094H55.597C55.2166 47.0486 54.8362 50.1274 52.078 50.1274H49.9539V40.1533V40.1212Z" fill="#121212"/>
<path d="M28.0472 30.211H28.713C30.6152 30.211 31.2492 33.2899 31.4711 36.5291H32.0418V29.4734H20.9141V36.5291H21.4847C21.7066 33.2899 22.3407 30.211 24.2429 30.211H24.9086V48.7482C24.9086 49.6141 24.6233 49.9348 24.0209 50.0952L23.2284 50.2876V50.8328H29.6958V50.2876L28.9032 50.0952C28.1106 49.9027 28.0155 49.2934 28.0155 48.7482V30.211H28.0472Z" fill="#121212"/>
<path d="M20.9852 45.284C20.9852 38.9339 14.1056 37.2662 14.1056 32.648C14.1056 28.0297 14.4861 30.1785 16.0078 30.1785C18.227 30.1785 19.0513 33.0649 19.4 36.5607H19.9707V29.505H19.5902C19.4317 30.1785 19.1464 30.4992 18.766 30.4992C18.0685 30.4992 17.6881 29.3767 16.0078 29.3767C13.4082 29.3767 11.6328 31.5896 11.6328 34.444C11.6328 39.6716 18.5123 41.8845 18.5123 46.7272C18.5123 51.57 17.4978 50.1589 16.1346 50.1589C14.0739 50.1589 12.7424 47.7215 12.362 43.7767H11.7913V50.8324H12.1718C12.4888 49.8061 12.8692 49.7099 13.218 49.7099C13.7886 49.7099 14.4227 50.9606 16.198 50.9606C18.9245 50.9606 21.0169 48.5874 21.0169 45.284" fill="#121212"/>
<path d="M117.453 6.2854C117.453 5.41948 117.739 5.13084 118.341 5.00255L119.165 4.81013V4.23284H112.793V4.77805L113.459 4.97048C114.061 5.16291 114.346 5.41948 114.346 6.2854V23.6359C114.346 24.4698 113.998 24.9508 113.047 24.9508C112.095 24.9508 111.747 24.566 111.366 22.7379L107.435 4.1687H106.199L102.458 22.1606C102.014 24.1811 101.824 24.6301 100.999 24.8867L100.492 25.0471V25.5923H104.867V25.0471L104.233 24.9188C103.314 24.7263 103.06 24.2453 103.536 21.872L105.755 10.3264L108.164 22.5776C108.513 24.3415 108.513 24.6943 107.181 24.9188L106.547 25.0471V25.5923H122.811V18.5366H122.24C121.923 21.7758 121.289 24.8546 118.69 24.8546H117.453V6.2854Z" fill="#121212"/>
<path d="M128.129 6.28474C128.129 5.41881 128.414 5.13017 129.017 5.00189L129.841 4.80946V4.23218H123.469V4.77739L124.135 4.96982C124.737 5.16224 125.022 5.41881 125.022 6.28474V23.507C125.022 24.3729 124.737 24.6936 124.135 24.854L123.469 25.0464V25.5916H133.487V18.5359H132.916C132.599 21.7751 131.965 24.854 129.365 24.854H128.129V6.28474Z" fill="#121212"/>
<path d="M107.842 19.8199V18.9861H103.721L103.594 19.8199H107.842Z" fill="#121212"/>
<path d="M90.1197 25.6558H91.3878L94.2411 10.4219H93.7972L96.9358 25.6558H98.0454L101.786 7.6638C102.198 5.7716 102.389 5.13017 103.15 4.93774L103.72 4.77739V4.23218H99.4086V4.77739L100.043 4.90567C100.962 5.0981 101.184 5.64331 100.74 7.95244L98.3307 20.0112H98.7112L96.27 7.31101C96.0164 6.09231 95.8579 5.0981 96.8724 4.93774L97.5382 4.80946V4.26425H91.6097V4.80946L92.0219 4.90567C92.6242 5.06603 92.7193 5.41881 92.9729 6.60545L93.924 11.2237L93.7338 8.43351L91.6097 19.7226H91.895L89.4222 7.31101C89.1369 6.02817 89.0418 5.06603 90.0246 4.90567L90.5001 4.80946V4.26425H84.4766V4.80946L85.0472 4.96982C85.5862 5.13017 85.9032 5.41881 86.2836 7.11859L90.1831 25.6878L90.1197 25.6558Z" fill="#121212"/>
<path d="M73.7619 14.8477H74.713C76.0762 14.9119 76.4883 15.425 76.7737 18.8246H77.3443V10.1974H76.7737C76.4249 12.8914 76.0762 14.046 74.7447 14.078H73.7619V4.96982H75.886C78.232 4.96982 78.7709 8.04865 79.088 11.2878H79.6586V4.23218H69.1016V4.77739L69.7673 4.96982C70.4648 5.16224 70.655 5.57917 70.655 6.31681V23.507C70.655 24.3729 70.3697 24.6936 69.7673 24.854L69.1016 25.0464V25.5916H79.9757V18.5359H79.405C79.0246 21.7751 78.6441 24.854 75.886 24.854H73.7619V14.8798V14.8477Z" fill="#121212"/>
<path d="M54.4922 25.5916H60.7694V25.0464L60.0719 24.886C59.5329 24.7578 59.1525 24.405 59.1525 23.507V15.0402H63.7811V23.507C63.7811 24.3729 63.4007 24.7578 62.8618 24.886L62.1643 25.0464V25.5916H68.4415V25.0464L67.7757 24.854C67.1733 24.6936 66.888 24.3729 66.888 23.4749V6.28474C66.888 5.41881 67.1733 5.13017 67.7757 4.96982L68.4415 4.77739V4.23218H62.1643V4.77739L62.8618 4.96982C63.369 5.13017 63.7811 5.35467 63.7811 6.25266V14.2063H59.1525V6.25266C59.1525 5.38674 59.5012 5.13017 60.0719 4.96982L60.7694 4.77739V4.23218H54.4922V4.77739L55.1579 4.96982C55.7603 5.16224 56.0456 5.41881 56.0456 6.28474V23.507C56.0456 24.3729 55.7603 24.6936 55.1579 24.854L54.4922 25.0464V25.5916Z" fill="#121212"/>
<path d="M49.8285 4.96982H50.4942C52.3964 4.96982 53.0305 8.04865 53.2524 11.2878H53.823V4.23218H42.6953V11.2878H43.266C43.4879 8.04865 44.1219 4.96982 46.0241 4.96982H46.6899V23.507C46.6899 24.3729 46.4045 24.6936 45.8022 24.854L45.0096 25.0464V25.5916H51.6355V25.0464L50.6844 24.8219C50.1138 24.6615 49.7968 24.4691 49.7968 23.507V4.96982H49.8285Z" fill="#121212"/>
</svg>
