<svg width="108" height="27" viewBox="0 0 108 27" fill="none" xmlns="http://www.w3.org/2000/svg">
<path fill-rule="evenodd" clip-rule="evenodd" d="M61.229 8.71016C62.5585 7.93168 64.0785 7.53837 65.6188 7.57424L65.6171 7.57507C69.7827 7.57507 72.9839 11.2589 72.9153 16.3371C72.9153 22.706 69.0081 26.7512 62.5012 26.7512C60.1877 26.7252 57.8841 26.4424 55.633 25.908C55.771 23.2915 55.8396 7.6445 55.633 4.66667C55.4096 3.16771 55.065 2.53116 53.9291 2.32455L53.0859 2.18653V1.48055L61.367 0C61.229 1.20535 61.229 4.81974 61.229 8.71016ZM61.2925 25.2012C61.7761 25.3227 62.2754 25.3693 62.7731 25.3392L62.7706 25.3384C65.3176 25.3384 67.1595 21.5859 67.1771 16.6115C67.1771 12.721 65.6798 9.5366 62.9947 9.5366C62.3666 9.5634 61.7462 9.68524 61.1545 9.89795C61.0859 16.2844 61.1545 23.4973 61.2925 25.2012ZM21.0613 8.05401C19.856 4.37019 18.1521 2.32168 14.8296 2.32168L10.5093 2.31917C10.5003 2.62412 10.4902 2.95536 10.4794 3.3101L10.4793 3.31179L10.4793 3.31419L10.4792 3.31529V3.31534C10.4069 5.6839 10.3027 9.09831 10.3027 12.7332L13.2805 12.5952C15.1216 12.5952 15.9656 11.0979 16.3269 9.04941H17.462V17.8323H16.3261C15.9647 15.7671 15.1199 14.2865 13.2797 14.2865L10.3018 14.1485C10.3018 17.3338 10.3704 19.8809 10.5084 21.5162C10.7836 23.8566 11.3516 24.9239 12.9869 25.062L14.4674 25.2686V26.2673H0.59375V25.2686L1.7991 25.062C3.43775 24.9064 4.07096 23.8574 4.27422 21.5162C4.55843 16.1149 4.55843 10.7024 4.27422 5.30119C4.00237 2.95991 3.43775 1.962 1.7991 1.75539L0.59375 1.61737V0.481445H22.1964L22.2667 7.69265L21.0613 8.05401ZM29.1393 7.34863C23.0456 7.34863 19.5859 11.7384 19.5859 17.0567C19.5859 22.5824 22.6324 26.7648 28.7955 26.7648C34.9586 26.7648 38.3488 22.2897 38.3488 17.0567C38.3488 11.531 35.3024 7.34863 29.1393 7.34863ZM29.0707 25.4231C26.5922 25.4231 25.3902 21.6707 25.3902 16.9881C25.3902 12.237 26.0962 8.55315 28.7812 8.55315C31.4153 8.55315 32.6198 12.3741 32.6198 16.9881C32.6198 21.7393 31.9138 25.4231 29.074 25.4231H29.0707ZM83.9396 7.28125C89.104 7.28125 91.5138 11.1022 91.5138 16.1286L80.1161 16.1328C79.9789 20.6564 82.1646 23.9956 86.623 23.9956C88.1325 24.0605 89.6156 23.5844 90.8053 22.6531L91.3072 23.2896C90.4238 24.3847 89.2991 25.2607 88.021 25.849C86.7429 26.4372 85.346 26.7219 83.9396 26.6807C78.4825 26.7668 74.5234 22.7902 74.5234 17.1273C74.5234 12.101 77.7079 7.28125 83.9396 7.28125ZM85.9195 14.7166C85.9195 12.2348 85.5582 8.55436 83.4411 8.55436H83.4402C81.3925 8.55436 80.3252 12.0316 80.1872 14.8547L85.9195 14.7166ZM102.766 15.213C99.3752 13.8705 98.0819 13.0098 98.0819 11.392C98.0599 11.0453 98.1098 10.6978 98.2282 10.3712C98.3467 10.0445 98.5312 9.74588 98.7704 9.49386C99.0095 9.24184 99.2981 9.04188 99.6181 8.90648C99.938 8.77108 100.282 8.70316 100.63 8.70696C102.833 8.70696 104.31 10.0495 105.45 13.3912L106.293 13.1846L106.172 8.34728C104.371 7.63835 102.445 7.29871 100.509 7.34854C95.9824 7.34854 93.1418 10.0336 93.1418 13.218C93.1418 16.4025 95.1903 17.745 98.1681 18.7438C101.215 19.8797 102.059 20.7237 102.059 22.1348C102.057 22.5251 101.975 22.9109 101.819 23.2686C101.662 23.6262 101.435 23.9481 101.149 24.2144C100.864 24.4808 100.527 24.686 100.16 24.8174C99.7921 24.9489 99.4016 25.0038 99.0121 24.9788C96.67 24.9788 94.9669 23.6363 93.6244 19.9525L92.7812 20.1591L92.9193 25.5468C95.0044 26.3055 97.2073 26.6901 99.4262 26.6827C104.246 26.6827 107.289 24.2042 107.289 20.451C107.289 17.9031 105.946 16.4058 102.762 15.218L102.766 15.213ZM46.7186 7.35255L46.5806 11.6729L46.5814 11.6712C48.5605 7.21369 52.2443 6.64489 54.2928 7.85025L52.3129 12.9452C49.903 11.3099 47.2171 12.102 46.5806 12.9452C46.512 15.8536 46.512 20.5177 46.7186 22.8599C46.7872 24.3588 47.2171 25.064 48.4225 25.202L49.903 25.34V26.3421H38.5078V25.3433L39.351 25.2053C40.4183 25.0665 40.9168 24.3438 41.0549 22.8632C41.1929 20.2467 41.2615 15.1518 41.0549 12.174C40.9863 10.5378 40.4869 9.96986 39.351 9.83184L38.5078 9.69383V8.98785L46.7186 7.35255Z" fill="#121212"/>
</svg>
