<svg width="25" height="24" viewBox="0 0 25 24" fill="none" xmlns="http://www.w3.org/2000/svg">
<path d="M16.3906 15.75L13.9016 13.261M13.9016 13.261C14.215 12.9476 14.4636 12.5755 14.6332 12.1661C14.8028 11.7566 14.8901 11.3177 14.8901 10.8745C14.8901 10.4313 14.8028 9.99241 14.6332 9.58294C14.4636 9.17346 14.215 8.8014 13.9016 8.488C13.5882 8.1746 13.2162 7.926 12.8067 7.75639C12.3972 7.58678 11.9583 7.49948 11.5151 7.49948C11.0719 7.49948 10.633 7.58678 10.2236 7.75639C9.81408 7.926 9.44202 8.1746 9.12862 8.488C8.49555 9.12107 8.1399 9.9797 8.1399 10.875C8.1399 11.7703 8.49555 12.6289 9.12862 13.262C9.7617 13.8951 10.6203 14.2507 11.5156 14.2507C12.4109 14.2507 13.2696 13.8951 13.9026 13.262L13.9016 13.261ZM21.6406 12C21.6406 13.1819 21.4078 14.3522 20.9555 15.4442C20.5032 16.5361 19.8403 17.5282 19.0046 18.364C18.1689 19.1997 17.1767 19.8626 16.0848 20.3149C14.9928 20.7672 13.8225 21 12.6406 21C11.4587 21 10.2884 20.7672 9.19647 20.3149C8.10454 19.8626 7.11239 19.1997 6.27666 18.364C5.44094 17.5282 4.778 16.5361 4.32571 15.4442C3.87342 14.3522 3.64062 13.1819 3.64063 12C3.64063 9.61305 4.58884 7.32387 6.27666 5.63604C7.96449 3.94821 10.2537 3 12.6406 3C15.0276 3 17.3168 3.94821 19.0046 5.63604C20.6924 7.32387 21.6406 9.61305 21.6406 12Z" stroke="black" stroke-width="1.5" stroke-linecap="round" stroke-linejoin="round"/>
</svg>
