<svg width="25" height="24" viewBox="0 0 25 24" fill="none" xmlns="http://www.w3.org/2000/svg">
<path d="M3.48438 3.54883H4.78579C5.26467 3.54883 5.68251 3.8709 5.80646 4.33287L6.16608 5.68218M6.16608 5.68218C11.3968 5.53559 16.6224 6.11707 21.693 7.40989C20.9192 9.71413 20 11.9526 18.9474 14.1123H8.41399M6.16608 5.68218L8.41399 14.1123M8.41399 14.1123C7.66689 14.1123 6.9504 14.4091 6.42212 14.9373C5.89385 15.4656 5.59707 16.1821 5.59707 16.9292H20.3859M7.00553 19.7461C7.00553 19.9329 6.93133 20.112 6.79926 20.2441C6.66719 20.3762 6.48807 20.4504 6.3013 20.4504C6.11452 20.4504 5.9354 20.3762 5.80333 20.2441C5.67126 20.112 5.59707 19.9329 5.59707 19.7461C5.59707 19.5594 5.67126 19.3802 5.80333 19.2482C5.9354 19.1161 6.11452 19.0419 6.3013 19.0419C6.48807 19.0419 6.66719 19.1161 6.79926 19.2482C6.93133 19.3802 7.00553 19.5594 7.00553 19.7461ZM18.9774 19.7461C18.9774 19.9329 18.9033 20.112 18.7712 20.2441C18.6391 20.3762 18.46 20.4504 18.2732 20.4504C18.0864 20.4504 17.9073 20.3762 17.7753 20.2441C17.6432 20.112 17.569 19.9329 17.569 19.7461C17.569 19.5594 17.6432 19.3802 17.7753 19.2482C17.9073 19.1161 18.0864 19.0419 18.2732 19.0419C18.46 19.0419 18.6391 19.1161 18.7712 19.2482C18.9033 19.3802 18.9774 19.5594 18.9774 19.7461Z" stroke="black" stroke-width="1.5" stroke-linecap="round" stroke-linejoin="round"/>
</svg>
